<svg class="svg-icon" style="vertical-align: middle;fill: currentColor;overflow: hidden;" viewBox="0 0 1024 1024" version="1.1" xmlns="http://www.w3.org/2000/svg"><path d="M762.434537 286.834696V202.975702h55.902986c15.42525 0 27.95375-12.5285 27.95375-27.951492V91.167474c0-15.422992-12.5285-27.951493-27.95375-27.951493H203.388879c-15.422992 0-27.951493 12.5285-27.951493 27.951493V175.02421c0 15.422992 12.5285 27.951493 27.951493 27.951492h55.905243v83.858994c0 97.367377 55.713331 181.826944 136.85394 223.616457-81.140609 41.791771-136.85394 126.249081-136.85394 223.616457v83.861252H203.388879c-15.422992 0-27.951493 12.5285-27.951493 27.951493v83.856735c0 15.42525 12.5285 27.95375 27.951493 27.953751H818.337523c15.42525 0 27.95375-12.5285 27.95375-27.953751v-83.856735c0-15.422992-12.5285-27.951493-27.95375-27.951493h-55.902986v-83.861252c0-97.367377-55.713331-181.824686-136.85394-223.616457 81.142867-41.789514 136.85394-126.249081 136.85394-223.616457M231.340371 119.118966H790.38603V147.072717H231.340371V119.118966zM790.38603 901.785598H231.340371v-27.951493H790.38603v27.951493z m-83.854478-167.71573v83.861252H315.197107v-83.861252c0-107.890956 87.760462-195.662707 195.667222-195.662707 107.893213 0 195.667222 87.771751 195.667223 195.662707m-195.667223-251.570208c-107.904502 0-195.667222-87.760462-195.667222-195.664964V202.975702H706.531552v83.858994c0 107.904502-87.774009 195.664965-195.667223 195.664964" fill="#61DAFB" /></svg>